<svg xmlns="http://www.w3.org/2000/svg" xmlns:xlink="http://www.w3.org/1999/xlink" width="500" zoomAndPan="magnify" viewBox="0 0 375 374.999991" height="500" preserveAspectRatio="xMidYMid meet" version="1.0"><defs><g/><clipPath id="b72ae9da0d"><path d="M 233 106 L 299 106 L 299 172 L 233 172 Z M 233 106 " clip-rule="nonzero"/></clipPath><clipPath id="dc292a7bc4"><path d="M 233.242188 111.222656 L 294.578125 106.773438 L 298.917969 166.617188 L 237.578125 171.0625 Z M 233.242188 111.222656 " clip-rule="nonzero"/></clipPath><clipPath id="6f153fa818"><path d="M 0.28125 2 L 63 2 L 63 61 L 0.28125 61 Z M 0.28125 2 " clip-rule="nonzero"/></clipPath><clipPath id="3233c3e530"><path d="M 0.242188 5.222656 L 61.578125 0.773438 L 65.917969 60.617188 L 4.578125 65.0625 Z M 0.242188 5.222656 " clip-rule="nonzero"/></clipPath><clipPath id="3ccbede84c"><path d="M 61.472656 0.78125 L 0.136719 5.226562 L 4.476562 65.070312 L 65.8125 60.625 Z M 61.472656 0.78125 " clip-rule="nonzero"/></clipPath><clipPath id="cced555b40"><rect x="0" width="66" y="0" height="66"/></clipPath><clipPath id="004c1d0620"><path d="M 0.71875 3 L 45 3 L 45 48 L 0.71875 48 Z M 0.71875 3 " clip-rule="nonzero"/></clipPath><clipPath id="1551f0364f"><path d="M 43 0.0390625 L 79 0.0390625 L 79 48 L 43 48 Z M 43 0.0390625 " clip-rule="nonzero"/></clipPath><clipPath id="71d277c8f7"><rect x="0" width="166" y="0" height="64"/></clipPath><clipPath id="a3a8f23d45"><path d="M 0.558594 3 L 40 3 L 40 50 L 0.558594 50 Z M 0.558594 3 " clip-rule="nonzero"/></clipPath><clipPath id="d1b20b389e"><rect x="0" width="83" y="0" height="67"/></clipPath></defs><g clip-path="url(#b72ae9da0d)"><g clip-path="url(#dc292a7bc4)"><g transform="matrix(1, 0, 0, 1, 233, 106)"><g clip-path="url(#cced555b40)"><g clip-path="url(#6f153fa818)"><g clip-path="url(#3233c3e530)"><g clip-path="url(#3ccbede84c)"><path fill="#ede1d8" d="M 0.535156 7.4375 C 0.640625 7.136719 0.882812 6.964844 1.191406 6.921875 C 5.589844 6.308594 9.996094 5.792969 14.40625 5.28125 C 18.816406 4.773438 23.222656 4.210938 27.640625 3.804688 C 28.886719 3.6875 30.128906 3.539062 31.375 3.402344 C 32.007812 3.328125 32.640625 3.265625 33.273438 3.210938 C 33.492188 3.191406 33.710938 3.179688 33.929688 3.171875 C 34.015625 2.933594 34.273438 2.757812 34.582031 2.90625 C 34.71875 2.972656 34.859375 3.042969 34.996094 3.113281 C 35.058594 3.109375 35.121094 3.101562 35.179688 3.09375 C 35.507812 3.058594 35.707031 3.265625 35.761719 3.515625 C 37.253906 4.335938 38.667969 5.285156 40.113281 6.183594 C 42.066406 7.398438 43.960938 8.707031 45.863281 9.992188 C 47.753906 11.273438 49.570312 12.648438 51.4375 13.949219 C 53.234375 15.199219 55.03125 16.445312 56.796875 17.738281 C 58.792969 19.207031 60.804688 20.671875 62.675781 22.300781 C 63.050781 22.625 62.828125 23.234375 62.347656 23.285156 C 61.785156 23.34375 61.207031 23.296875 60.644531 23.363281 C 60.078125 23.429688 59.511719 23.496094 58.941406 23.558594 C 57.789062 23.695312 56.640625 23.832031 55.488281 23.949219 C 54.835938 24.019531 54.1875 24.089844 53.535156 24.164062 C 53.601562 24.34375 53.511719 24.554688 53.328125 24.613281 C 53.601562 26.398438 53.746094 28.199219 53.765625 30.007812 C 53.777344 30.949219 53.757812 31.894531 53.703125 32.835938 C 53.664062 33.609375 53.628906 34.394531 53.488281 35.160156 C 53.511719 35.164062 53.535156 35.164062 53.558594 35.164062 C 54.402344 35.265625 55.148438 35.792969 55.636719 36.476562 C 56.167969 37.230469 56.308594 38.238281 56.300781 39.140625 C 56.296875 40.070312 56.121094 40.988281 55.667969 41.808594 C 55.496094 42.113281 55.25 42.496094 54.945312 42.789062 C 56.957031 43.792969 57.828125 46.050781 58.480469 48.074219 C 59.316406 50.664062 59.925781 53.339844 60.199219 56.050781 C 60.355469 57.574219 60.425781 59.140625 60.25 60.660156 C 60.210938 60.972656 59.796875 60.964844 59.671875 60.734375 C 59.558594 60.753906 59.441406 60.738281 59.34375 60.671875 C 58.953125 60.421875 58.546875 60.132812 58.0625 60.207031 C 57.589844 60.277344 57.1875 60.394531 56.703125 60.332031 C 56.292969 60.277344 55.890625 60.113281 55.550781 59.890625 C 55.378906 59.78125 55.21875 59.65625 55.082031 59.503906 C 55.035156 59.449219 54.9375 59.273438 54.878906 59.25 C 54.761719 59.207031 54.710938 59.308594 54.625 59.378906 C 54.023438 59.902344 53.003906 60.355469 52.226562 59.972656 C 51.628906 59.675781 51.335938 58.820312 51.386719 58.15625 C 50.472656 56.179688 49.925781 54.054688 49.695312 51.886719 C 49.429688 49.398438 49.777344 46.855469 50.886719 44.597656 C 51.320312 43.722656 52.015625 42.792969 52.949219 42.617188 C 52.609375 42.238281 52.328125 41.789062 52.0625 41.359375 C 51.648438 40.703125 51.296875 40 51.148438 39.230469 C 50.878906 37.859375 51.566406 36.308594 52.71875 35.539062 C 52.773438 35.5 52.828125 35.480469 52.878906 35.472656 C 52.914062 35.414062 52.957031 35.363281 53.003906 35.324219 C 53.003906 34.511719 53.085938 33.695312 53.113281 32.882812 C 53.144531 31.921875 53.148438 30.957031 53.113281 29.992188 C 53.050781 28.117188 52.863281 26.238281 52.582031 24.378906 C 52.527344 24.355469 52.472656 24.328125 52.417969 24.296875 C 51.179688 24.449219 49.945312 24.609375 48.710938 24.808594 C 48.472656 24.847656 48.230469 24.886719 47.992188 24.929688 C 48.257812 28.472656 48.558594 32.015625 48.742188 35.5625 C 48.765625 36.042969 48.785156 36.523438 48.800781 37.007812 C 48.800781 37.089844 48.804688 37.175781 48.808594 37.265625 L 48.808594 37.273438 C 48.832031 37.386719 48.835938 37.503906 48.808594 37.617188 C 48.808594 37.617188 48.808594 37.625 48.808594 37.625 C 48.757812 37.84375 48.605469 38.042969 48.332031 38.152344 C 48.15625 38.21875 47.976562 38.285156 47.796875 38.351562 C 45.019531 39.355469 42.007812 39.894531 39.070312 40.125 C 35.921875 40.367188 32.722656 40.207031 29.621094 39.605469 C 26.742188 39.046875 23.9375 38.210938 21.277344 36.96875 C 18.773438 35.800781 16.355469 34.328125 14.175781 32.632812 C 12.042969 30.972656 10.101562 29.066406 8.398438 26.972656 C 8.1875 26.722656 7.980469 26.460938 7.785156 26.199219 C 7.785156 26.101562 7.808594 26.003906 7.859375 25.902344 C 8.050781 25.507812 8.269531 25.121094 8.5 24.742188 C 8.765625 24.304688 9.039062 23.867188 9.292969 23.425781 C 9.769531 22.597656 10.226562 21.757812 10.675781 20.914062 C 11.402344 19.546875 12.085938 18.160156 12.730469 16.753906 C 11.027344 15.507812 9.320312 14.273438 7.601562 13.054688 C 5.777344 11.761719 3.925781 10.507812 2.121094 9.195312 C 1.671875 8.871094 1.210938 8.5625 0.75 8.25 C 0.507812 8.082031 0.445312 7.691406 0.535156 7.4375 Z M 51.652344 45.480469 C 51.207031 46.46875 50.929688 47.515625 50.734375 48.578125 C 50.53125 49.667969 50.464844 50.78125 50.507812 51.886719 C 50.554688 53.074219 50.800781 54.226562 51.078125 55.378906 C 51.265625 56.167969 51.511719 56.9375 51.773438 57.699219 C 51.871094 57.71875 51.964844 57.78125 52.011719 57.890625 C 52.273438 58.511719 52.234375 59.496094 53.171875 59.445312 C 53.59375 59.425781 53.992188 59.210938 54.3125 58.949219 C 54.574219 58.730469 54.902344 58.511719 55.226562 58.757812 C 55.527344 58.980469 55.757812 59.242188 56.121094 59.378906 C 56.460938 59.503906 56.851562 59.53125 57.199219 59.441406 C 57.679688 59.324219 58.078125 59.09375 58.585938 59.136719 C 58.929688 59.164062 59.242188 59.277344 59.542969 59.425781 C 59.480469 58.53125 59.421875 57.636719 59.328125 56.746094 C 59.195312 55.472656 59.019531 54.207031 58.769531 52.953125 C 58.515625 51.683594 58.199219 50.417969 57.796875 49.1875 C 57.460938 48.148438 57.113281 47.078125 56.589844 46.121094 C 56.070312 45.167969 55.34375 44.265625 54.34375 43.792969 C 54.230469 43.738281 54.148438 43.664062 54.097656 43.578125 C 53.929688 43.804688 53.632812 43.859375 53.367188 43.753906 C 53.019531 43.613281 52.640625 43.933594 52.421875 44.171875 C 52.078125 44.546875 51.859375 45.023438 51.652344 45.484375 Z M 51.953125 39.3125 C 51.976562 39.992188 52.15625 40.667969 52.5 41.253906 C 52.792969 41.753906 53.203125 42.164062 53.5625 42.613281 C 53.667969 42.628906 53.773438 42.65625 53.886719 42.691406 C 54.046875 42.523438 54.246094 42.375 54.398438 42.207031 C 54.613281 41.984375 54.808594 41.738281 54.945312 41.457031 C 55.265625 40.789062 55.296875 40.003906 55.222656 39.28125 C 55.140625 38.480469 54.863281 37.480469 54.246094 36.894531 C 54.304688 37.027344 54.359375 37.164062 54.394531 37.300781 C 54.488281 37.632812 54.539062 37.964844 54.539062 38.308594 C 54.539062 38.664062 54.53125 39.039062 54.4375 39.386719 C 54.386719 39.574219 54.101562 39.625 54.03125 39.414062 C 53.9375 39.113281 53.90625 38.792969 53.851562 38.484375 C 53.800781 38.195312 53.738281 37.902344 53.648438 37.621094 C 53.554688 37.332031 53.4375 37.050781 53.265625 36.804688 C 53.230469 37.011719 53.203125 37.222656 53.1875 37.417969 C 53.160156 37.84375 53.1875 38.308594 53.15625 38.75 C 53.148438 38.859375 53.027344 38.949219 52.925781 38.957031 C 52.804688 38.964844 52.71875 38.886719 52.667969 38.785156 C 52.464844 38.359375 52.433594 37.816406 52.46875 37.351562 C 52.480469 37.179688 52.507812 37.011719 52.539062 36.84375 C 52.058594 37.546875 51.921875 38.453125 51.953125 39.3125 Z M 11.996094 21.632812 C 11.566406 22.484375 11.113281 23.324219 10.648438 24.160156 C 10.3125 24.757812 9.984375 25.382812 9.613281 25.96875 C 12.707031 29.789062 16.652344 32.984375 21.066406 35.128906 C 23.550781 36.339844 26.164062 37.292969 28.867188 37.894531 C 31.792969 38.539062 34.835938 38.777344 37.828125 38.632812 C 39.53125 38.550781 41.230469 38.347656 42.90625 38.023438 C 44.414062 37.730469 45.878906 37.296875 47.335938 36.828125 C 47.320312 36.660156 47.304688 36.488281 47.289062 36.320312 C 47.082031 34.40625 46.96875 32.476562 46.828125 30.554688 C 46.699219 28.773438 46.570312 26.992188 46.445312 25.214844 C 45.007812 25.492188 43.578125 25.820312 42.160156 26.191406 C 39.980469 26.761719 37.824219 27.425781 35.636719 27.972656 C 34.507812 28.25 33.375 28.5 32.230469 28.71875 C 31.683594 28.820312 31.132812 28.921875 30.582031 29.011719 C 30.039062 29.105469 29.503906 29.160156 28.976562 28.960938 C 28.488281 28.777344 28.09375 28.410156 27.695312 28.085938 C 27.269531 27.738281 26.839844 27.386719 26.410156 27.039062 C 25.535156 26.328125 24.640625 25.640625 23.75 24.945312 C 22.875 24.265625 21.964844 23.632812 21.078125 22.964844 C 20.183594 22.277344 19.28125 21.601562 18.378906 20.925781 C 16.886719 19.808594 15.394531 18.707031 13.894531 17.605469 C 13.296875 18.96875 12.664062 20.308594 11.992188 21.632812 Z M 7.214844 10.875 C 9.003906 12.136719 10.785156 13.414062 12.558594 14.710938 C 12.875 14.941406 13.199219 15.175781 13.519531 15.414062 L 13.523438 15.414062 C 13.84375 15.648438 14.164062 15.886719 14.484375 16.125 C 15.625 16.960938 16.761719 17.8125 17.890625 18.667969 C 19.632812 19.992188 21.417969 21.28125 23.089844 22.695312 C 24.777344 24.121094 26.554688 25.453125 28.296875 26.8125 C 28.65625 27.089844 29.050781 27.519531 29.496094 27.660156 C 29.90625 27.792969 30.457031 27.589844 30.863281 27.507812 C 31.933594 27.292969 32.996094 27.027344 34.066406 26.796875 C 36.238281 26.335938 38.410156 25.863281 40.582031 25.382812 C 42.507812 24.957031 44.433594 24.511719 46.371094 24.140625 C 46.636719 24.089844 46.902344 24.039062 47.164062 23.992188 C 47.414062 23.945312 47.664062 23.902344 47.910156 23.859375 C 48.863281 23.699219 49.816406 23.554688 50.773438 23.429688 C 50.375 23.222656 49.976562 23.015625 49.578125 22.8125 C 48.410156 22.210938 47.25 21.613281 46.074219 21.039062 C 43.738281 19.894531 41.414062 18.734375 39.078125 17.597656 C 37.746094 16.949219 36.402344 16.328125 35.058594 15.703125 C 34.992188 15.671875 34.953125 15.625 34.933594 15.574219 C 34.703125 15.851562 34.363281 16 34.019531 16.085938 C 33.59375 16.191406 33.089844 16.105469 32.683594 15.941406 C 32.503906 15.875 32.324219 15.796875 32.15625 15.703125 C 32.066406 15.65625 31.980469 15.605469 31.890625 15.566406 C 31.785156 15.511719 31.695312 15.445312 31.632812 15.417969 C 31.433594 15.339844 31.324219 15.082031 31.363281 14.878906 C 31.398438 14.710938 31.457031 14.597656 31.566406 14.5 C 31.597656 14.089844 31.703125 13.675781 31.878906 13.300781 C 32.078125 12.882812 32.46875 12.570312 32.914062 12.449219 C 33.375 12.324219 33.898438 12.351562 34.335938 12.558594 C 34.769531 12.765625 35.128906 13.140625 35.359375 13.558594 C 35.632812 14.070312 35.765625 14.644531 35.769531 15.222656 C 35.765625 15.296875 35.753906 15.367188 35.726562 15.429688 C 37.96875 16.445312 40.207031 17.460938 42.433594 18.503906 C 44.785156 19.609375 47.101562 20.789062 49.425781 21.949219 C 50.082031 22.273438 50.734375 22.597656 51.382812 22.929688 C 51.605469 23.039062 51.828125 23.148438 52.054688 23.261719 C 54.890625 22.925781 57.738281 22.695312 60.578125 22.4375 C 60.710938 22.425781 60.84375 22.410156 60.980469 22.386719 C 59.597656 21.300781 58.210938 20.222656 56.773438 19.210938 C 54.984375 17.945312 53.167969 16.71875 51.351562 15.492188 C 47.617188 12.976562 43.761719 10.613281 40.15625 7.910156 C 38.476562 6.652344 36.808594 5.363281 35.015625 4.277344 C 34.554688 4.34375 34.097656 4.457031 33.636719 4.527344 C 33.074219 4.613281 32.507812 4.691406 31.9375 4.757812 C 30.84375 4.886719 29.753906 5.015625 28.660156 5.144531 C 27.546875 5.28125 26.441406 5.464844 25.328125 5.59375 C 24.214844 5.722656 23.097656 5.851562 21.988281 5.980469 C 17.582031 6.492188 13.179688 6.996094 8.773438 7.511719 C 6.945312 7.726562 5.113281 7.925781 3.285156 8.160156 C 4.601562 9.058594 5.914062 9.953125 7.214844 10.871094 Z M 34.835938 14.6875 C 34.789062 14.433594 34.707031 14.191406 34.578125 13.96875 C 34.457031 13.765625 34.328125 13.613281 34.136719 13.472656 C 34.035156 13.398438 33.777344 13.277344 33.644531 13.246094 C 33.292969 13.152344 32.898438 13.171875 32.609375 13.457031 C 32.449219 13.609375 32.328125 13.785156 32.277344 13.996094 C 32.238281 14.160156 32.214844 14.328125 32.195312 14.496094 C 32.269531 14.511719 32.347656 14.53125 32.421875 14.550781 C 32.609375 14.601562 32.785156 14.667969 32.957031 14.757812 C 33.226562 14.894531 33.484375 15.066406 33.765625 15.175781 C 33.980469 15.257812 34.195312 15.34375 34.429688 15.226562 C 34.625 15.128906 34.789062 14.910156 34.832031 14.695312 C 34.832031 14.691406 34.832031 14.6875 34.832031 14.683594 Z M 54.007812 44.242188 C 55.164062 46.347656 56.085938 48.59375 56.75 50.90625 C 57.417969 53.242188 57.703125 55.621094 57.898438 58.035156 C 57.910156 58.167969 58.101562 58.148438 58.105469 58.019531 C 58.113281 55.59375 57.660156 53.140625 57.039062 50.804688 C 56.410156 48.4375 55.503906 46.164062 54.339844 44.011719 C 54.21875 43.785156 53.882812 44.015625 54.007812 44.242188 Z M 53.128906 45.609375 C 53.453125 49.894531 54.253906 54.113281 55.574219 58.207031 C 55.59375 58.273438 55.6875 58.238281 55.671875 58.171875 C 54.550781 54.058594 53.816406 49.828125 53.527344 45.578125 C 53.507812 45.324219 53.113281 45.355469 53.128906 45.609375 Z M 53.328125 58.453125 C 52.304688 54.210938 51.910156 49.816406 52.234375 45.460938 C 52.253906 45.214844 51.875 45.132812 51.851562 45.382812 C 51.394531 49.800781 51.8125 54.277344 53.144531 58.515625 C 53.183594 58.636719 53.355469 58.570312 53.328125 58.453125 Z M 53.328125 58.453125 " fill-opacity="1" fill-rule="nonzero"/></g></g></g></g></g></g></g><g fill="#ede1d8" fill-opacity="1"><g transform="translate(105.41298, 144.896086)"><g><path d="M -12.640625 -20.0625 C -12.640625 -20.457031 -12.28125 -20.867188 -11.5625 -21.296875 C -10.84375 -21.734375 -9.9375 -22.160156 -8.84375 -22.578125 C -7.75 -23.003906 -6.59375 -23.40625 -5.375 -23.78125 C -4.164062 -24.15625 -3.050781 -24.476562 -2.03125 -24.75 C -1.007812 -25.019531 -0.242188 -25.226562 0.265625 -25.375 C 0.898438 -25.5625 1.34375 -25.664062 1.59375 -25.6875 C 1.851562 -25.71875 2.019531 -25.816406 2.09375 -25.984375 C 2.164062 -26.148438 2.25 -26.488281 2.34375 -27 C 2.582031 -28.226562 2.859375 -29.070312 3.171875 -29.53125 C 3.484375 -30 3.789062 -30.234375 4.09375 -30.234375 C 4.332031 -30.234375 4.535156 -30.101562 4.703125 -29.84375 C 4.867188 -29.59375 4.953125 -29.289062 4.953125 -28.9375 C 4.953125 -28.664062 4.9375 -28.550781 4.90625 -28.59375 C 4.875 -28.644531 4.875 -28.550781 4.90625 -28.3125 C 4.90625 -28.25 4.910156 -28.171875 4.921875 -28.078125 C 4.941406 -27.984375 4.953125 -27.863281 4.953125 -27.71875 C 4.953125 -27.332031 4.875 -27.140625 4.71875 -27.140625 C 4.570312 -27.140625 4.421875 -27.113281 4.265625 -27.0625 C 4.117188 -27.019531 4.046875 -26.757812 4.046875 -26.28125 C 4.410156 -26.28125 4.804688 -26.332031 5.234375 -26.4375 C 5.671875 -26.539062 6.054688 -26.609375 6.390625 -26.640625 C 7.710938 -26.878906 9.03125 -27.09375 10.34375 -27.28125 C 11.664062 -27.476562 13.019531 -27.578125 14.40625 -27.578125 C 15.125 -27.578125 15.644531 -27.425781 15.96875 -27.125 C 16.300781 -26.832031 16.421875 -26.535156 16.328125 -26.234375 C 16.242188 -25.929688 15.914062 -25.78125 15.34375 -25.78125 C 15.28125 -26.019531 15.238281 -26.128906 15.21875 -26.109375 C 15.207031 -26.097656 15.070312 -26.125 14.8125 -26.1875 C 14.6875 -26.21875 14.441406 -26.234375 14.078125 -26.234375 C 13.453125 -26.234375 12.617188 -26.164062 11.578125 -26.03125 C 10.546875 -25.894531 9.472656 -25.738281 8.359375 -25.5625 C 7.253906 -25.382812 6.265625 -25.210938 5.390625 -25.046875 C 4.523438 -24.878906 3.957031 -24.765625 3.6875 -24.703125 L 2.796875 -15.484375 C 2.765625 -15.273438 2.753906 -15.046875 2.765625 -14.796875 C 2.785156 -14.554688 2.796875 -14.316406 2.796875 -14.078125 C 2.796875 -13.785156 2.769531 -13.59375 2.71875 -13.5 C 2.675781 -13.40625 2.65625 -13.195312 2.65625 -12.875 C 2.65625 -12.207031 2.671875 -11.445312 2.703125 -10.59375 C 2.734375 -9.738281 2.71875 -9.070312 2.65625 -8.59375 C 2.625 -8.320312 2.597656 -7.789062 2.578125 -7 C 2.566406 -6.207031 2.550781 -5.285156 2.53125 -4.234375 C 2.519531 -3.179688 2.515625 -2.117188 2.515625 -1.046875 C 2.515625 0.015625 2.515625 0.976562 2.515625 1.84375 C 2.515625 2.71875 2.53125 3.347656 2.5625 3.734375 C 2.5625 4.066406 2.597656 4.566406 2.671875 5.234375 C 2.753906 5.910156 2.769531 6.519531 2.71875 7.0625 C 2.675781 7.601562 2.457031 7.875 2.0625 7.875 C 1.5 7.875 1.15625 7.554688 1.03125 6.921875 C 0.914062 6.296875 0.859375 5.710938 0.859375 5.171875 C 0.765625 4.097656 0.707031 2.835938 0.6875 1.390625 C 0.675781 -0.046875 0.675781 -1.484375 0.6875 -2.921875 C 0.707031 -4.359375 0.71875 -5.617188 0.71875 -6.703125 L 0.859375 -8.8125 C 0.859375 -9.238281 0.859375 -9.882812 0.859375 -10.75 C 0.859375 -11.625 0.867188 -12.546875 0.890625 -13.515625 C 0.921875 -14.492188 0.953125 -15.390625 0.984375 -16.203125 C 1.015625 -17.015625 1.0625 -17.582031 1.125 -17.90625 C 1.1875 -18.207031 1.222656 -18.566406 1.234375 -18.984375 C 1.253906 -19.410156 1.28125 -19.769531 1.3125 -20.0625 L 1.703125 -24.25 C 1.585938 -24.21875 1.328125 -24.15625 0.921875 -24.0625 C 0.515625 -23.976562 0.191406 -23.90625 -0.046875 -23.84375 C -1.515625 -23.488281 -2.914062 -23.109375 -4.25 -22.703125 C -5.582031 -22.296875 -6.957031 -21.820312 -8.375 -21.28125 C -8.644531 -21.164062 -8.890625 -21.039062 -9.109375 -20.90625 C -9.335938 -20.769531 -9.585938 -20.640625 -9.859375 -20.515625 C -10.210938 -20.367188 -10.441406 -20.265625 -10.546875 -20.203125 C -10.648438 -20.140625 -10.703125 -20.0625 -10.703125 -19.96875 C -10.703125 -19.882812 -10.78125 -19.691406 -10.9375 -19.390625 C -11.050781 -19.359375 -11.164062 -19.335938 -11.28125 -19.328125 C -11.40625 -19.316406 -11.546875 -19.3125 -11.703125 -19.3125 C -11.941406 -19.3125 -12.15625 -19.363281 -12.34375 -19.46875 C -12.539062 -19.570312 -12.640625 -19.769531 -12.640625 -20.0625 Z M -12.640625 -20.0625 "/></g></g></g><g fill="#ede1d8" fill-opacity="1"><g transform="translate(110.632973, 144.896086)"><g><path d="M -0.265625 -3.734375 L 0 -8.8125 C 0.03125 -9.144531 0.0625 -9.539062 0.09375 -10 C 0.125 -10.46875 0.15625 -10.867188 0.1875 -11.203125 C 0.238281 -12.703125 0.421875 -14.1875 0.734375 -15.65625 C 1.054688 -17.125 1.394531 -18.582031 1.75 -20.03125 C 1.957031 -20.625 2.125 -21.019531 2.25 -21.21875 C 2.375 -21.414062 2.539062 -21.515625 2.75 -21.515625 C 2.832031 -21.515625 2.929688 -21.503906 3.046875 -21.484375 C 3.171875 -21.472656 3.3125 -21.453125 3.46875 -21.421875 C 3.613281 -20.734375 3.582031 -19.914062 3.375 -18.96875 C 3.164062 -18.019531 3 -17.15625 2.875 -16.375 C 2.550781 -14.3125 2.28125 -12.035156 2.0625 -9.546875 C 1.851562 -7.054688 1.75 -4.6875 1.75 -2.4375 L 1.890625 2.609375 L 2.25 1.75 C 2.664062 0.550781 3.015625 -0.457031 3.296875 -1.28125 C 3.585938 -2.101562 3.921875 -2.921875 4.296875 -3.734375 C 4.671875 -4.546875 5.175781 -5.535156 5.8125 -6.703125 C 6.132812 -7.304688 6.453125 -7.816406 6.765625 -8.234375 C 7.085938 -8.648438 7.578125 -8.859375 8.234375 -8.859375 C 8.566406 -8.859375 8.800781 -8.617188 8.9375 -8.140625 C 9.070312 -7.660156 9.148438 -7.132812 9.171875 -6.5625 C 9.203125 -6 9.21875 -5.582031 9.21875 -5.3125 C 9.21875 -4.46875 9.238281 -3.753906 9.28125 -3.171875 C 9.332031 -2.585938 9.507812 -2.007812 9.8125 -1.4375 C 10.5 -1.59375 11.082031 -2.035156 11.5625 -2.765625 C 12.039062 -3.503906 12.476562 -4.144531 12.875 -4.6875 C 13.082031 -5.007812 13.273438 -5.335938 13.453125 -5.671875 C 13.628906 -6.003906 13.8125 -6.347656 14 -6.703125 C 14.269531 -7.179688 14.484375 -7.507812 14.640625 -7.6875 C 14.804688 -7.875 14.984375 -7.96875 15.171875 -7.96875 C 15.253906 -7.96875 15.414062 -7.9375 15.65625 -7.875 C 15.8125 -7.332031 15.78125 -6.894531 15.5625 -6.5625 C 15.351562 -6.238281 15.128906 -5.851562 14.890625 -5.40625 C 14.679688 -5.007812 14.394531 -4.503906 14.03125 -3.890625 C 13.675781 -3.273438 13.273438 -2.675781 12.828125 -2.09375 C 12.378906 -1.507812 11.898438 -1.015625 11.390625 -0.609375 C 10.878906 -0.203125 10.351562 0 9.8125 0 C 8.820312 0 8.175781 -0.882812 7.875 -2.65625 C 7.78125 -3.164062 7.71875 -3.847656 7.6875 -4.703125 C 7.664062 -5.554688 7.65625 -6.300781 7.65625 -6.9375 C 7.4375 -6.78125 7.175781 -6.429688 6.875 -5.890625 C 6.582031 -5.347656 6.285156 -4.738281 5.984375 -4.0625 C 5.679688 -3.394531 5.398438 -2.742188 5.140625 -2.109375 C 4.890625 -1.484375 4.691406 -1.003906 4.546875 -0.671875 C 4.179688 0.253906 3.882812 1.179688 3.65625 2.109375 C 3.4375 3.046875 3.191406 3.929688 2.921875 4.765625 C 2.773438 5.242188 2.601562 5.550781 2.40625 5.6875 C 2.207031 5.820312 1.898438 5.890625 1.484375 5.890625 C 1.148438 5.890625 0.878906 5.601562 0.671875 5.03125 C 0.460938 4.46875 0.289062 3.757812 0.15625 2.90625 C 0.0195312 2.050781 -0.0703125 1.164062 -0.125 0.25 C -0.1875 -0.664062 -0.222656 -1.488281 -0.234375 -2.21875 C -0.253906 -2.957031 -0.265625 -3.460938 -0.265625 -3.734375 Z M -0.265625 -3.734375 "/></g></g></g><g fill="#ede1d8" fill-opacity="1"><g transform="translate(124.357963, 144.896086)"><g><path d="M 2.0625 -8.140625 C 2.632812 -8.441406 3.265625 -8.851562 3.953125 -9.375 C 4.648438 -9.90625 5.023438 -10.53125 5.078125 -11.25 C 4.691406 -11.1875 4.28125 -10.972656 3.84375 -10.609375 C 3.40625 -10.253906 3.03125 -9.851562 2.71875 -9.40625 C 2.40625 -8.957031 2.1875 -8.535156 2.0625 -8.140625 Z M 0.046875 -7.0625 C 0.046875 -7.8125 0.289062 -8.617188 0.78125 -9.484375 C 1.28125 -10.359375 1.894531 -11.101562 2.625 -11.71875 C 3.363281 -12.332031 4.09375 -12.640625 4.8125 -12.640625 C 5.800781 -12.640625 6.316406 -12.265625 6.359375 -11.515625 C 6.410156 -10.765625 6.09375 -9.957031 5.40625 -9.09375 C 5.039062 -8.695312 4.5 -8.242188 3.78125 -7.734375 C 3.0625 -7.222656 2.359375 -6.941406 1.671875 -6.890625 C 1.671875 -6.410156 1.679688 -5.984375 1.703125 -5.609375 C 1.734375 -5.234375 1.945312 -4.847656 2.34375 -4.453125 C 2.726562 -4.066406 3.222656 -3.875 3.828125 -3.875 C 4.609375 -3.875 5.414062 -4.117188 6.25 -4.609375 C 7.09375 -5.109375 7.738281 -5.519531 8.1875 -5.84375 C 8.363281 -6 8.503906 -6.117188 8.609375 -6.203125 C 8.722656 -6.296875 8.851562 -6.40625 9 -6.53125 C 9.625 -7.007812 10.019531 -7.359375 10.1875 -7.578125 C 10.351562 -7.804688 10.492188 -7.957031 10.609375 -8.03125 C 10.734375 -8.101562 11.019531 -8.140625 11.46875 -8.140625 C 11.53125 -7.816406 11.550781 -7.59375 11.53125 -7.46875 C 11.519531 -7.351562 11.410156 -7.175781 11.203125 -6.9375 C 10.660156 -6.394531 9.976562 -5.773438 9.15625 -5.078125 C 8.332031 -4.390625 7.445312 -3.789062 6.5 -3.28125 C 5.550781 -2.769531 4.613281 -2.515625 3.6875 -2.515625 C 3.207031 -2.515625 2.75 -2.597656 2.3125 -2.765625 C 1.882812 -2.929688 1.472656 -3.207031 1.078125 -3.59375 C 0.535156 -4.132812 0.226562 -4.691406 0.15625 -5.265625 C 0.0820312 -5.835938 0.046875 -6.4375 0.046875 -7.0625 Z M 0.046875 -7.0625 "/></g></g></g><g transform="matrix(1, 0, 0, 1, 108, 149)"><g clip-path="url(#71d277c8f7)"><g clip-path="url(#004c1d0620)"><g fill="#ede1d8" fill-opacity="1"><g transform="translate(0.778283, 47.722976)"><g><path d="M 9.578125 -3.21875 C 9.921875 -2.289062 10.414062 -1.703125 11.0625 -1.453125 C 11.71875 -1.203125 12.503906 -1.078125 13.421875 -1.078125 L 13.421875 0 L 0 0 L 0 -1.078125 C 1.09375 -1.078125 1.984375 -1.359375 2.671875 -1.921875 C 3.367188 -2.492188 3.925781 -3.257812 4.34375 -4.21875 L 19.359375 -44.140625 L 23.953125 -44.140625 L 38.90625 -4.34375 C 39.363281 -3.125 39.882812 -2.273438 40.46875 -1.796875 C 41.0625 -1.316406 42.007812 -1.078125 43.3125 -1.078125 L 43.3125 0 L 25.15625 0 L 25.15625 -1.078125 C 26.125 -1.078125 26.859375 -1.296875 27.359375 -1.734375 C 27.867188 -2.171875 27.910156 -2.894531 27.484375 -3.90625 L 24.90625 -10.96875 L 8 -10.96875 C 7.707031 -10.300781 7.582031 -9.617188 7.625 -8.921875 C 7.664062 -8.222656 7.835938 -7.519531 8.140625 -6.8125 Z M 8.390625 -12.046875 L 24.40625 -12.046875 L 16.390625 -33.421875 Z M 8.390625 -12.046875 "/></g></g></g></g><g clip-path="url(#1551f0364f)"><g fill="#ede1d8" fill-opacity="1"><g transform="translate(43.761035, 47.722976)"><g><path d="M 25.28125 0 C 24.4375 0 23.6875 -0.269531 23.03125 -0.8125 C 22.382812 -1.363281 22.0625 -2.414062 22.0625 -3.96875 L 22.0625 -4.734375 C 19.039062 -1.578125 15.890625 0 12.609375 0 C 10.503906 0 8.484375 -0.597656 6.546875 -1.796875 C 4.617188 -2.992188 3.046875 -4.769531 1.828125 -7.125 C 0.609375 -9.476562 0 -12.359375 0 -15.765625 C 0 -18.660156 0.4375 -21.296875 1.3125 -23.671875 C 2.195312 -26.046875 3.507812 -27.945312 5.25 -29.375 C 7 -30.8125 9.222656 -31.53125 11.921875 -31.53125 C 13.515625 -31.53125 14.960938 -31.203125 16.265625 -30.546875 C 17.566406 -29.890625 18.710938 -29.085938 19.703125 -28.140625 C 20.691406 -27.203125 21.476562 -26.269531 22.0625 -25.34375 L 22.0625 -47.09375 C 23.789062 -46.425781 25.8125 -45.785156 28.125 -45.171875 C 30.4375 -44.566406 32.640625 -44.222656 34.734375 -44.140625 L 34.734375 -43.0625 C 33.898438 -43.0625 33.15625 -42.796875 32.5 -42.265625 C 31.851562 -41.742188 31.53125 -40.6875 31.53125 -39.09375 L 31.53125 -5.046875 C 31.53125 -3.441406 31.851562 -2.378906 32.5 -1.859375 C 33.15625 -1.335938 33.898438 -1.078125 34.734375 -1.078125 L 34.734375 0 Z M 22.0625 -23.390625 C 21.007812 -25.410156 19.6875 -26.828125 18.09375 -27.640625 C 16.5 -28.460938 15.007812 -28.410156 13.625 -27.484375 C 12.570312 -26.859375 11.738281 -25.867188 11.125 -24.515625 C 10.519531 -23.171875 10.085938 -21.753906 9.828125 -20.265625 C 9.578125 -18.773438 9.453125 -17.460938 9.453125 -16.328125 C 9.453125 -14.265625 9.671875 -12.234375 10.109375 -10.234375 C 10.554688 -8.242188 11.367188 -6.640625 12.546875 -5.421875 C 14.015625 -3.992188 15.640625 -3.425781 17.421875 -3.71875 C 19.210938 -4.007812 20.757812 -4.847656 22.0625 -6.234375 Z M 22.0625 -23.390625 "/></g></g></g></g><g fill="#ede1d8" fill-opacity="1"><g transform="translate(76.974733, 47.722976)"><g><path d="M 9.453125 0 L 0 0 L 0 -1.078125 C 0.84375 -1.078125 1.585938 -1.335938 2.234375 -1.859375 C 2.890625 -2.378906 3.21875 -3.441406 3.21875 -5.046875 L 3.21875 -23.515625 C 3.21875 -25.109375 2.890625 -26.164062 2.234375 -26.6875 C 1.585938 -27.21875 0.84375 -27.484375 0 -27.484375 L 0 -28.5625 C 2.101562 -28.644531 4.3125 -28.988281 6.625 -29.59375 C 8.9375 -30.207031 10.953125 -30.851562 12.671875 -31.53125 L 12.671875 -25.34375 C 13.722656 -26.101562 14.742188 -26.804688 15.734375 -27.453125 C 16.722656 -28.109375 17.695312 -28.707031 18.65625 -29.25 C 20 -29.96875 21.300781 -30.523438 22.5625 -30.921875 C 23.832031 -31.328125 25.097656 -31.53125 26.359375 -31.53125 C 28.835938 -31.53125 30.566406 -30.953125 31.546875 -29.796875 C 32.535156 -28.640625 33.113281 -27.132812 33.28125 -25.28125 C 34.375 -26.039062 35.425781 -26.753906 36.4375 -27.421875 C 37.445312 -28.097656 38.4375 -28.707031 39.40625 -29.25 C 40.75 -29.96875 42.050781 -30.523438 43.3125 -30.921875 C 44.570312 -31.328125 45.851562 -31.53125 47.15625 -31.53125 C 49.21875 -31.53125 50.753906 -31.140625 51.765625 -30.359375 C 52.773438 -29.578125 53.4375 -28.503906 53.75 -27.140625 C 54.0625 -25.773438 54.21875 -24.207031 54.21875 -22.4375 L 54.21875 -5.046875 C 54.21875 -3.441406 54.53125 -2.378906 55.15625 -1.859375 C 55.789062 -1.335938 56.53125 -1.078125 57.375 -1.078125 L 57.375 0 L 47.921875 0 C 47.078125 0 46.335938 -0.269531 45.703125 -0.8125 C 45.078125 -1.363281 44.765625 -2.414062 44.765625 -3.96875 L 44.765625 -20.8125 C 44.765625 -23.207031 44.21875 -24.851562 43.125 -25.75 C 42.03125 -26.65625 40.671875 -26.984375 39.046875 -26.734375 C 37.429688 -26.484375 35.804688 -25.769531 34.171875 -24.59375 C 34.046875 -24.507812 33.921875 -24.410156 33.796875 -24.296875 C 33.671875 -24.191406 33.546875 -24.097656 33.421875 -24.015625 C 33.421875 -23.765625 33.421875 -23.515625 33.421875 -23.265625 C 33.421875 -23.015625 33.421875 -22.738281 33.421875 -22.4375 L 33.421875 -5.046875 C 33.421875 -3.441406 33.742188 -2.378906 34.390625 -1.859375 C 35.046875 -1.335938 35.789062 -1.078125 36.625 -1.078125 L 36.625 0 L 20.8125 0 L 20.8125 -1.078125 C 21.644531 -1.078125 22.375 -1.335938 23 -1.859375 C 23.632812 -2.378906 23.953125 -3.441406 23.953125 -5.046875 L 23.953125 -20.8125 C 23.953125 -23.207031 23.40625 -24.851562 22.3125 -25.75 C 21.21875 -26.65625 19.863281 -26.984375 18.25 -26.734375 C 16.632812 -26.484375 15.003906 -25.769531 13.359375 -24.59375 C 13.234375 -24.507812 13.109375 -24.421875 12.984375 -24.328125 C 12.859375 -24.242188 12.753906 -24.160156 12.671875 -24.078125 L 12.671875 -3.96875 C 12.671875 -2.414062 12.34375 -1.363281 11.6875 -0.8125 C 11.039062 -0.269531 10.296875 0 9.453125 0 Z M 9.453125 0 "/></g></g></g><g fill="#ede1d8" fill-opacity="1"><g transform="translate(132.688761, 47.722976)"><g><path d="M 7.875 -41.046875 C 9.21875 -41.046875 10.34375 -40.582031 11.25 -39.65625 C 12.15625 -38.726562 12.609375 -37.613281 12.609375 -36.3125 C 12.609375 -35.007812 12.15625 -33.894531 11.25 -32.96875 C 10.34375 -32.050781 9.21875 -31.59375 7.875 -31.59375 C 6.570312 -31.59375 5.457031 -32.050781 4.53125 -32.96875 C 3.613281 -33.894531 3.15625 -35.007812 3.15625 -36.3125 C 3.15625 -37.613281 3.613281 -38.726562 4.53125 -39.65625 C 5.457031 -40.582031 6.570312 -41.046875 7.875 -41.046875 Z M 0 0 L 0 -1.078125 C 0.84375 -1.078125 1.578125 -1.335938 2.203125 -1.859375 C 2.835938 -2.378906 3.15625 -3.441406 3.15625 -5.046875 L 3.15625 -23.515625 C 3.15625 -25.109375 2.835938 -26.164062 2.203125 -26.6875 C 1.578125 -27.21875 0.84375 -27.484375 0 -27.484375 L 0 -28.5625 C 2.101562 -28.644531 4.3125 -28.988281 6.625 -29.59375 C 8.9375 -30.207031 10.929688 -30.851562 12.609375 -31.53125 L 12.609375 -5.046875 C 12.609375 -3.441406 12.929688 -2.378906 13.578125 -1.859375 C 14.234375 -1.335938 14.984375 -1.078125 15.828125 -1.078125 L 15.828125 0 Z M 0 0 "/></g></g></g><g fill="#ede1d8" fill-opacity="1"><g transform="translate(146.868556, 47.722976)"><g><path d="M 3.15625 -30.453125 L 0 -30.453125 L 0 -31.53125 C 1.425781 -31.613281 2.976562 -32 4.65625 -32.6875 C 6.34375 -33.382812 7.921875 -34.320312 9.390625 -35.5 C 10.859375 -36.675781 11.929688 -38.019531 12.609375 -39.53125 L 12.609375 -31.53125 L 17.65625 -31.53125 L 17.65625 -30.453125 L 12.609375 -30.453125 L 12.609375 -9.703125 C 12.609375 -5.171875 14.414062 -3.09375 18.03125 -3.46875 L 18.03125 -2.328125 L 17.96875 -2.265625 C 16.664062 -1.597656 15.375 -1.050781 14.09375 -0.625 C 12.8125 -0.207031 11.519531 0 10.21875 0 C 8.15625 0 6.628906 -0.382812 5.640625 -1.15625 C 4.648438 -1.9375 3.988281 -3.019531 3.65625 -4.40625 C 3.320312 -5.800781 3.15625 -7.359375 3.15625 -9.078125 Z M 3.15625 -30.453125 "/></g></g></g></g></g><g transform="matrix(1, 0, 0, 1, 190, 195)"><g clip-path="url(#d1b20b389e)"><g clip-path="url(#a3a8f23d45)"><g fill="#ede1d8" fill-opacity="1"><g transform="translate(0.668947, 49.099659)"><g><path d="M 39.109375 -31.859375 C 39.109375 -29.941406 38.707031 -28.320312 37.90625 -27 C 37.101562 -25.675781 36.066406 -24.664062 34.796875 -23.96875 C 33.535156 -23.269531 32.164062 -22.898438 30.6875 -22.859375 C 28.644531 -22.765625 26.945312 -23.269531 25.59375 -24.375 C 24.25 -25.488281 23.445312 -27.113281 23.1875 -29.25 C 25.226562 -29.207031 26.800781 -29.914062 27.90625 -31.375 C 29.019531 -32.832031 29.554688 -34.539062 29.515625 -36.5 C 29.472656 -38.5 29.082031 -40.117188 28.34375 -41.359375 C 27.601562 -42.597656 26.632812 -43.476562 25.4375 -44 C 24.238281 -44.53125 22.960938 -44.71875 21.609375 -44.5625 C 20.265625 -44.414062 18.984375 -43.945312 17.765625 -43.15625 C 15.628906 -41.769531 14.015625 -39.722656 12.921875 -37.015625 C 11.835938 -34.316406 11.1875 -31.445312 10.96875 -28.40625 C 10.84375 -24.789062 11.332031 -21.4375 12.4375 -18.34375 C 13.550781 -15.257812 15.25 -12.769531 17.53125 -10.875 C 19.8125 -8.976562 22.585938 -7.988281 25.859375 -7.90625 C 28.160156 -7.851562 30.441406 -8.335938 32.703125 -9.359375 C 34.972656 -10.390625 36.867188 -11.945312 38.390625 -14.03125 L 39.109375 -13.390625 C 38.148438 -10.515625 36.691406 -8.070312 34.734375 -6.0625 C 32.773438 -4.0625 30.554688 -2.550781 28.078125 -1.53125 C 25.597656 -0.507812 23.03125 0 20.375 0 C 17.582031 0 14.957031 -0.550781 12.5 -1.65625 C 10.039062 -2.769531 7.875 -4.347656 6 -6.390625 C 4.132812 -8.441406 2.664062 -10.859375 1.59375 -13.640625 C 0.53125 -16.429688 0 -19.503906 0 -22.859375 C 0 -26.335938 0.585938 -29.476562 1.765625 -32.28125 C 2.941406 -35.09375 4.539062 -37.5 6.5625 -39.5 C 8.582031 -41.507812 10.898438 -43.046875 13.515625 -44.109375 C 16.128906 -45.171875 18.875 -45.703125 21.75 -45.703125 C 23.445312 -45.703125 25.296875 -45.484375 27.296875 -45.046875 C 29.296875 -44.617188 31.1875 -43.878906 32.96875 -42.828125 C 34.757812 -41.785156 36.226562 -40.367188 37.375 -38.578125 C 38.53125 -36.796875 39.109375 -34.554688 39.109375 -31.859375 Z M 39.109375 -31.859375 "/></g></g></g></g><g fill="#ede1d8" fill-opacity="1"><g transform="translate(39.446148, 49.099659)"><g><path d="M 16.328125 -32.65625 C 19.328125 -32.65625 22.066406 -31.925781 24.546875 -30.46875 C 27.035156 -29.007812 29.007812 -27.035156 30.46875 -24.546875 C 31.925781 -22.066406 32.65625 -19.328125 32.65625 -16.328125 C 32.65625 -13.316406 31.925781 -10.582031 30.46875 -8.125 C 29.007812 -5.664062 27.035156 -3.695312 24.546875 -2.21875 C 22.066406 -0.738281 19.328125 0 16.328125 0 C 13.316406 0 10.582031 -0.738281 8.125 -2.21875 C 5.664062 -3.695312 3.695312 -5.664062 2.21875 -8.125 C 0.738281 -10.582031 0 -13.316406 0 -16.328125 C 0 -19.328125 0.738281 -22.066406 2.21875 -24.546875 C 3.695312 -27.035156 5.664062 -29.007812 8.125 -30.46875 C 10.582031 -31.925781 13.316406 -32.65625 16.328125 -32.65625 Z M 16.328125 -31.53125 C 15.148438 -31.53125 14.0625 -30.84375 13.0625 -29.46875 C 12.0625 -28.101562 11.265625 -26.273438 10.671875 -23.984375 C 10.085938 -21.703125 9.796875 -19.148438 9.796875 -16.328125 C 9.796875 -13.535156 10.085938 -10.984375 10.671875 -8.671875 C 11.265625 -6.367188 12.0625 -4.53125 13.0625 -3.15625 C 14.0625 -1.789062 15.148438 -1.109375 16.328125 -1.109375 C 17.546875 -1.109375 18.644531 -1.789062 19.625 -3.15625 C 20.601562 -4.53125 21.382812 -6.367188 21.96875 -8.671875 C 22.5625 -10.984375 22.859375 -13.535156 22.859375 -16.328125 C 22.859375 -19.148438 22.5625 -21.703125 21.96875 -23.984375 C 21.382812 -26.273438 20.601562 -28.101562 19.625 -29.46875 C 18.644531 -30.84375 17.546875 -31.53125 16.328125 -31.53125 Z M 16.328125 -31.53125 "/></g></g></g><g fill="#ede1d8" fill-opacity="1"><g transform="translate(70.389429, 49.099659)"><g><path d="M 5.609375 -11.234375 C 7.140625 -11.234375 8.457031 -10.675781 9.5625 -9.5625 C 10.675781 -8.457031 11.234375 -7.140625 11.234375 -5.609375 C 11.234375 -4.046875 10.675781 -2.71875 9.5625 -1.625 C 8.457031 -0.539062 7.140625 0 5.609375 0 C 4.046875 0 2.71875 -0.539062 1.625 -1.625 C 0.539062 -2.71875 0 -4.046875 0 -5.609375 C 0 -7.140625 0.539062 -8.457031 1.625 -9.5625 C 2.71875 -10.675781 4.046875 -11.234375 5.609375 -11.234375 Z M 5.609375 -11.234375 "/></g></g></g></g></g></svg>